G04 #@! TF.GenerationSoftware,KiCad,Pcbnew,7.0.7*
G04 #@! TF.CreationDate,2023-11-07T16:40:15+01:00*
G04 #@! TF.ProjectId,semkicker01,73656d6b-6963-46b6-9572-30312e6b6963,rev?*
G04 #@! TF.SameCoordinates,Original*
G04 #@! TF.FileFunction,Copper,L2,Bot*
G04 #@! TF.FilePolarity,Positive*
%FSLAX46Y46*%
G04 Gerber Fmt 4.6, Leading zero omitted, Abs format (unit mm)*
G04 Created by KiCad (PCBNEW 7.0.7) date 2023-11-07 16:40:15*
%MOMM*%
%LPD*%
G01*
G04 APERTURE LIST*
G04 Aperture macros list*
%AMRoundRect*
0 Rectangle with rounded corners*
0 $1 Rounding radius*
0 $2 $3 $4 $5 $6 $7 $8 $9 X,Y pos of 4 corners*
0 Add a 4 corners polygon primitive as box body*
4,1,4,$2,$3,$4,$5,$6,$7,$8,$9,$2,$3,0*
0 Add four circle primitives for the rounded corners*
1,1,$1+$1,$2,$3*
1,1,$1+$1,$4,$5*
1,1,$1+$1,$6,$7*
1,1,$1+$1,$8,$9*
0 Add four rect primitives between the rounded corners*
20,1,$1+$1,$2,$3,$4,$5,0*
20,1,$1+$1,$4,$5,$6,$7,0*
20,1,$1+$1,$6,$7,$8,$9,0*
20,1,$1+$1,$8,$9,$2,$3,0*%
G04 Aperture macros list end*
G04 #@! TA.AperFunction,ComponentPad*
%ADD10RoundRect,0.200100X0.949900X-0.949900X0.949900X0.949900X-0.949900X0.949900X-0.949900X-0.949900X0*%
G04 #@! TD*
G04 #@! TA.AperFunction,ComponentPad*
%ADD11C,2.500000*%
G04 #@! TD*
G04 #@! TA.AperFunction,ViaPad*
%ADD12C,0.800000*%
G04 #@! TD*
G04 #@! TA.AperFunction,Conductor*
%ADD13C,1.600000*%
G04 #@! TD*
G04 #@! TA.AperFunction,Conductor*
%ADD14C,2.800000*%
G04 #@! TD*
G04 APERTURE END LIST*
D10*
X134000000Y-85000000D03*
D11*
X131460000Y-87540000D03*
X136540000Y-87540000D03*
X131460000Y-82460000D03*
X136540000Y-82460000D03*
D10*
X133960000Y-95000000D03*
D11*
X131420000Y-97540000D03*
X136500000Y-97540000D03*
X131420000Y-92460000D03*
X136500000Y-92460000D03*
D12*
X162250000Y-91000000D03*
X162250000Y-89000000D03*
X162250000Y-90000000D03*
X162250000Y-92000000D03*
X162250000Y-88000000D03*
X158250000Y-92000000D03*
X158250000Y-91000000D03*
X158250000Y-90000000D03*
X158250000Y-89000000D03*
X158250000Y-88000000D03*
X144000000Y-88000000D03*
X159000000Y-110000000D03*
X143000000Y-106000000D03*
X164000000Y-70000000D03*
X169000000Y-88000000D03*
X151000000Y-102000000D03*
X161000000Y-78000000D03*
X169000000Y-93000000D03*
X157000000Y-70000000D03*
X156000000Y-106000000D03*
X159000000Y-78000000D03*
X165000000Y-95000000D03*
X165000000Y-84000000D03*
X148000000Y-74000000D03*
X152000000Y-88000000D03*
X169000000Y-98000000D03*
X143000000Y-92000000D03*
X149000000Y-78000000D03*
X167000000Y-106000000D03*
X145000000Y-92000000D03*
X131000000Y-104000000D03*
X169000000Y-91000000D03*
X165000000Y-107000000D03*
X145000000Y-74000000D03*
X133000000Y-106000000D03*
X150000000Y-102000000D03*
X159000000Y-106000000D03*
X165000000Y-106000000D03*
X152000000Y-92000000D03*
X168000000Y-106000000D03*
X133000000Y-74000000D03*
X169000000Y-95000000D03*
X156000000Y-74000000D03*
X132000000Y-74000000D03*
X159000000Y-74000000D03*
X146000000Y-106000000D03*
X169000000Y-82000000D03*
X132000000Y-79000000D03*
X165000000Y-94000000D03*
X142000000Y-106000000D03*
X131000000Y-78000000D03*
X165000000Y-103000000D03*
X140000000Y-106000000D03*
X155000000Y-78000000D03*
X165000000Y-82000000D03*
X149000000Y-110000000D03*
X140000000Y-90000000D03*
X165000000Y-81000000D03*
X154000000Y-102000000D03*
X141000000Y-78000000D03*
X169000000Y-81000000D03*
X155000000Y-102000000D03*
X145000000Y-92000000D03*
X165000000Y-89000000D03*
X140000000Y-88000000D03*
X158000000Y-110000000D03*
X147000000Y-88000000D03*
X161000000Y-74000000D03*
X169000000Y-97000000D03*
X137000000Y-106000000D03*
X152000000Y-78000000D03*
X161000000Y-106000000D03*
X136000000Y-101000000D03*
X160000000Y-70000000D03*
X148000000Y-102000000D03*
X143000000Y-110000000D03*
X165000000Y-79000000D03*
X169000000Y-77000000D03*
X146000000Y-102000000D03*
X146000000Y-88000000D03*
X139000000Y-106000000D03*
X169000000Y-83000000D03*
X148000000Y-110000000D03*
X156000000Y-102000000D03*
X162000000Y-101000000D03*
X159000000Y-70000000D03*
X163000000Y-74000000D03*
X144000000Y-102000000D03*
X140000000Y-78000000D03*
X145000000Y-78000000D03*
X157000000Y-106000000D03*
X141000000Y-102000000D03*
X143000000Y-88000000D03*
X148000000Y-92000000D03*
X165000000Y-98000000D03*
X167000000Y-74000000D03*
X147000000Y-78000000D03*
X169000000Y-92000000D03*
X169000000Y-90000000D03*
X150000000Y-106000000D03*
X158000000Y-78000000D03*
X145000000Y-88000000D03*
X144000000Y-74000000D03*
X157000000Y-70000000D03*
X146000000Y-92000000D03*
X135000000Y-79000000D03*
X148000000Y-88000000D03*
X144000000Y-110000000D03*
X152000000Y-102000000D03*
X165000000Y-71000000D03*
X165000000Y-75000000D03*
X158000000Y-70000000D03*
X138000000Y-102000000D03*
X151000000Y-70000000D03*
X135000000Y-70000000D03*
X139000000Y-70000000D03*
X158000000Y-106000000D03*
X165000000Y-102000000D03*
X135000000Y-106000000D03*
X169000000Y-79000000D03*
X154000000Y-74000000D03*
X149000000Y-102000000D03*
X156000000Y-70000000D03*
X165000000Y-76000000D03*
X160000000Y-74000000D03*
X156000000Y-78000000D03*
X149000000Y-74000000D03*
X135000000Y-74000000D03*
X150000000Y-70000000D03*
X169000000Y-76000000D03*
X134000000Y-106000000D03*
X166000000Y-106000000D03*
X131000000Y-77000000D03*
X152000000Y-110000000D03*
X162000000Y-79000000D03*
X160000000Y-110000000D03*
X165000000Y-104000000D03*
X163000000Y-100000000D03*
X140000000Y-102000000D03*
X153000000Y-78000000D03*
X160000000Y-78000000D03*
X141000000Y-92000000D03*
X135000000Y-110000000D03*
X165000000Y-77000000D03*
X165000000Y-83000000D03*
X136000000Y-79000000D03*
X165000000Y-100000000D03*
X165000000Y-91000000D03*
X131000000Y-76000000D03*
X151000000Y-92000000D03*
X135000000Y-73000000D03*
X153000000Y-106000000D03*
X165000000Y-86000000D03*
X154000000Y-70000000D03*
X162000000Y-70000000D03*
X131000000Y-101000000D03*
X137000000Y-79000000D03*
X156000000Y-110000000D03*
X169000000Y-99000000D03*
X164000000Y-106000000D03*
X137000000Y-101000000D03*
X134000000Y-74000000D03*
X138000000Y-78000000D03*
X139000000Y-102000000D03*
X152000000Y-70000000D03*
X142000000Y-110000000D03*
X149000000Y-106000000D03*
X140000000Y-110000000D03*
X149000000Y-88000000D03*
X155000000Y-74000000D03*
X142000000Y-102000000D03*
X169000000Y-101000000D03*
X164000000Y-106000000D03*
X153000000Y-88000000D03*
X147000000Y-110000000D03*
X155000000Y-70000000D03*
X144000000Y-78000000D03*
X142000000Y-74000000D03*
X162000000Y-74000000D03*
X155000000Y-92000000D03*
X137000000Y-102000000D03*
X161000000Y-110000000D03*
X143000000Y-78000000D03*
X169000000Y-94000000D03*
X131000000Y-74000000D03*
X159000000Y-102000000D03*
X165000000Y-70000000D03*
X157000000Y-78000000D03*
X149000000Y-70000000D03*
X142000000Y-88000000D03*
X143000000Y-70000000D03*
X148000000Y-106000000D03*
X140000000Y-89000000D03*
X141000000Y-74000000D03*
X138000000Y-70000000D03*
X168000000Y-74000000D03*
X140000000Y-110000000D03*
X140000000Y-106000000D03*
X165000000Y-105000000D03*
X155000000Y-88000000D03*
X169000000Y-102000000D03*
X137000000Y-78000000D03*
X151000000Y-106000000D03*
X143000000Y-74000000D03*
X160000000Y-106000000D03*
X140000000Y-74000000D03*
X132000000Y-101000000D03*
X137000000Y-70000000D03*
X145000000Y-70000000D03*
X135000000Y-101000000D03*
X141000000Y-110000000D03*
X165000000Y-97000000D03*
X157000000Y-110000000D03*
X148000000Y-70000000D03*
X163000000Y-70000000D03*
X131000000Y-75000000D03*
X136000000Y-110000000D03*
X165000000Y-72000000D03*
X151000000Y-110000000D03*
X157000000Y-74000000D03*
X169000000Y-104000000D03*
X169000000Y-89000000D03*
X161000000Y-102000000D03*
X148000000Y-78000000D03*
X153000000Y-92000000D03*
X150000000Y-110000000D03*
X165000000Y-88000000D03*
X158000000Y-74000000D03*
X131000000Y-79000000D03*
X169000000Y-85000000D03*
X138000000Y-110000000D03*
X151000000Y-78000000D03*
X165000000Y-92000000D03*
X131000000Y-102000000D03*
X154000000Y-106000000D03*
X136000000Y-106000000D03*
X163000000Y-106000000D03*
X141000000Y-70000000D03*
X137000000Y-74000000D03*
X147000000Y-106000000D03*
X149000000Y-92000000D03*
X169000000Y-106000000D03*
X144000000Y-70000000D03*
X132000000Y-106000000D03*
X169000000Y-105000000D03*
X150000000Y-92000000D03*
X158000000Y-102000000D03*
X164000000Y-110000000D03*
X165000000Y-87000000D03*
X144000000Y-106000000D03*
X147000000Y-102000000D03*
X155000000Y-90000000D03*
X138000000Y-74000000D03*
X139000000Y-110000000D03*
X135000000Y-108000000D03*
X160000000Y-102000000D03*
X169000000Y-75000000D03*
X169000000Y-87000000D03*
X161000000Y-70000000D03*
X135000000Y-109000000D03*
X155000000Y-106000000D03*
X150000000Y-74000000D03*
X142000000Y-92000000D03*
X147000000Y-70000000D03*
X150000000Y-78000000D03*
X147000000Y-74000000D03*
X165000000Y-96000000D03*
X155000000Y-110000000D03*
X164000000Y-99000000D03*
X165000000Y-90000000D03*
X146000000Y-74000000D03*
X135000000Y-71000000D03*
X165000000Y-108000000D03*
X133000000Y-79000000D03*
X153000000Y-110000000D03*
X142000000Y-70000000D03*
X145000000Y-106000000D03*
X151000000Y-74000000D03*
X165000000Y-85000000D03*
X146000000Y-106000000D03*
X154000000Y-92000000D03*
X140000000Y-70000000D03*
X145000000Y-102000000D03*
X145000000Y-110000000D03*
X150000000Y-88000000D03*
X141000000Y-88000000D03*
X165000000Y-75000000D03*
X165000000Y-110000000D03*
X140000000Y-91000000D03*
X169000000Y-80000000D03*
X134000000Y-101000000D03*
X163000000Y-80000000D03*
X165000000Y-74000000D03*
X169000000Y-78000000D03*
X165000000Y-101000000D03*
X165000000Y-109000000D03*
X152000000Y-106000000D03*
X141000000Y-106000000D03*
X139000000Y-78000000D03*
X134000000Y-79000000D03*
X155000000Y-89000000D03*
X169000000Y-103000000D03*
X151000000Y-88000000D03*
X154000000Y-78000000D03*
X165000000Y-80000000D03*
X133000000Y-101000000D03*
X163000000Y-110000000D03*
X169000000Y-86000000D03*
X137000000Y-110000000D03*
X164000000Y-74000000D03*
X144000000Y-92000000D03*
X154000000Y-110000000D03*
X138000000Y-106000000D03*
X131000000Y-106000000D03*
X154000000Y-88000000D03*
X153000000Y-102000000D03*
X169000000Y-84000000D03*
X165000000Y-78000000D03*
X155000000Y-91000000D03*
X166000000Y-74000000D03*
X153000000Y-74000000D03*
X143000000Y-102000000D03*
X169000000Y-96000000D03*
X136000000Y-74000000D03*
X135000000Y-72000000D03*
X135000000Y-107000000D03*
X157000000Y-102000000D03*
X162000000Y-110000000D03*
X146000000Y-110000000D03*
X165000000Y-93000000D03*
X139000000Y-74000000D03*
X146000000Y-70000000D03*
X142000000Y-78000000D03*
X152000000Y-74000000D03*
X169000000Y-100000000D03*
X140000000Y-92000000D03*
X153000000Y-70000000D03*
X162000000Y-106000000D03*
X165000000Y-99000000D03*
X164000000Y-81000000D03*
X153000000Y-106000000D03*
X131000000Y-103000000D03*
X150000000Y-106000000D03*
X147000000Y-92000000D03*
X165000000Y-73000000D03*
X136000000Y-70000000D03*
X146000000Y-78000000D03*
X131000000Y-105000000D03*
X169000000Y-74000000D03*
D13*
X131360000Y-97600000D02*
X136440000Y-97600000D01*
D14*
X158200000Y-95000000D02*
X158200000Y-85000000D01*
D13*
X137601000Y-81370000D02*
X136341000Y-82630000D01*
D14*
X160425000Y-98875000D02*
X161975000Y-97325000D01*
X139000000Y-95000000D02*
X158200000Y-95000000D01*
D13*
X131460000Y-87500000D02*
X136540000Y-87500000D01*
X131500000Y-87540000D02*
X131500000Y-82460000D01*
D14*
X139000000Y-85000000D02*
X158200000Y-85000000D01*
D13*
X137800000Y-81200000D02*
X139400000Y-81200000D01*
D14*
X160200000Y-81200000D02*
X162000000Y-83000000D01*
D13*
X136440000Y-97540000D02*
X137700000Y-98800000D01*
X136640000Y-82500000D02*
X131560000Y-82500000D01*
X136540000Y-92500000D02*
X131460000Y-92500000D01*
D14*
X139275000Y-98800000D02*
X160325000Y-98800000D01*
X160100000Y-81200000D02*
X139300000Y-81200000D01*
D13*
X137700000Y-98800000D02*
X139340000Y-98800000D01*
D14*
X162000000Y-83075000D02*
X162000000Y-97325000D01*
D13*
X139000000Y-85000000D02*
X134000000Y-85000000D01*
X139020000Y-95000000D02*
X133980000Y-95000000D01*
X131400000Y-97440000D02*
X131400000Y-92360000D01*
G04 #@! TA.AperFunction,Conductor*
G36*
X155943039Y-87019685D02*
G01*
X155988794Y-87072489D01*
X156000000Y-87124000D01*
X156000000Y-92876000D01*
X155980315Y-92943039D01*
X155927511Y-92988794D01*
X155876000Y-93000000D01*
X139124000Y-93000000D01*
X139056961Y-92980315D01*
X139011206Y-92927511D01*
X139000000Y-92876000D01*
X139000000Y-87124000D01*
X139019685Y-87056961D01*
X139072489Y-87011206D01*
X139124000Y-87000000D01*
X155876000Y-87000000D01*
X155943039Y-87019685D01*
G37*
G04 #@! TD.AperFunction*
G04 #@! TA.AperFunction,Conductor*
G36*
X132714846Y-107219296D02*
G01*
X132736131Y-107223049D01*
X132805744Y-107241701D01*
X132933981Y-107276062D01*
X132954282Y-107283451D01*
X133106020Y-107354208D01*
X133139915Y-107370014D01*
X133158633Y-107380821D01*
X133326418Y-107498305D01*
X133342976Y-107512199D01*
X133487800Y-107657023D01*
X133501694Y-107673581D01*
X133619178Y-107841366D01*
X133629985Y-107860084D01*
X133716545Y-108045710D01*
X133723938Y-108066022D01*
X133776950Y-108263868D01*
X133780703Y-108285154D01*
X133798554Y-108489193D01*
X133798554Y-108510807D01*
X133780703Y-108714845D01*
X133776950Y-108736131D01*
X133723938Y-108933977D01*
X133716545Y-108954289D01*
X133629985Y-109139915D01*
X133619178Y-109158633D01*
X133501694Y-109326418D01*
X133487800Y-109342976D01*
X133342976Y-109487800D01*
X133326418Y-109501694D01*
X133158633Y-109619178D01*
X133139915Y-109629985D01*
X132954289Y-109716545D01*
X132933977Y-109723938D01*
X132736131Y-109776950D01*
X132714845Y-109780703D01*
X132510807Y-109798554D01*
X132489193Y-109798554D01*
X132285154Y-109780703D01*
X132263868Y-109776950D01*
X132066022Y-109723938D01*
X132045710Y-109716545D01*
X131860084Y-109629985D01*
X131841366Y-109619178D01*
X131673581Y-109501694D01*
X131657023Y-109487800D01*
X131512199Y-109342976D01*
X131498305Y-109326418D01*
X131380821Y-109158633D01*
X131370014Y-109139915D01*
X131354208Y-109106020D01*
X131283451Y-108954282D01*
X131276061Y-108933977D01*
X131223049Y-108736131D01*
X131219296Y-108714845D01*
X131201445Y-108510807D01*
X131201445Y-108489193D01*
X131219296Y-108285154D01*
X131223049Y-108263868D01*
X131276063Y-108066014D01*
X131283449Y-108045721D01*
X131370015Y-107860081D01*
X131380821Y-107841366D01*
X131498305Y-107673581D01*
X131512193Y-107657029D01*
X131657029Y-107512193D01*
X131673581Y-107498305D01*
X131841366Y-107380821D01*
X131860081Y-107370015D01*
X132045721Y-107283449D01*
X132066014Y-107276063D01*
X132263868Y-107223048D01*
X132285151Y-107219296D01*
X132489198Y-107201445D01*
X132510802Y-107201445D01*
X132714846Y-107219296D01*
G37*
G04 #@! TD.AperFunction*
G04 #@! TA.AperFunction,Conductor*
G36*
X167714846Y-107219296D02*
G01*
X167736131Y-107223049D01*
X167805744Y-107241701D01*
X167933981Y-107276062D01*
X167954282Y-107283451D01*
X168106020Y-107354208D01*
X168139915Y-107370014D01*
X168158633Y-107380821D01*
X168326418Y-107498305D01*
X168342976Y-107512199D01*
X168487800Y-107657023D01*
X168501694Y-107673581D01*
X168619178Y-107841366D01*
X168629985Y-107860084D01*
X168716545Y-108045710D01*
X168723938Y-108066022D01*
X168776950Y-108263868D01*
X168780703Y-108285154D01*
X168798554Y-108489193D01*
X168798554Y-108510807D01*
X168780703Y-108714845D01*
X168776950Y-108736131D01*
X168723938Y-108933977D01*
X168716545Y-108954289D01*
X168629985Y-109139915D01*
X168619178Y-109158633D01*
X168501694Y-109326418D01*
X168487800Y-109342976D01*
X168342976Y-109487800D01*
X168326418Y-109501694D01*
X168158633Y-109619178D01*
X168139915Y-109629985D01*
X167954289Y-109716545D01*
X167933977Y-109723938D01*
X167736131Y-109776950D01*
X167714845Y-109780703D01*
X167510807Y-109798554D01*
X167489193Y-109798554D01*
X167285154Y-109780703D01*
X167263868Y-109776950D01*
X167066022Y-109723938D01*
X167045710Y-109716545D01*
X166860084Y-109629985D01*
X166841366Y-109619178D01*
X166673581Y-109501694D01*
X166657023Y-109487800D01*
X166512199Y-109342976D01*
X166498305Y-109326418D01*
X166380821Y-109158633D01*
X166370014Y-109139915D01*
X166354208Y-109106020D01*
X166283451Y-108954282D01*
X166276061Y-108933977D01*
X166223049Y-108736131D01*
X166219296Y-108714845D01*
X166201445Y-108510807D01*
X166201445Y-108489193D01*
X166219296Y-108285154D01*
X166223049Y-108263868D01*
X166276063Y-108066014D01*
X166283449Y-108045721D01*
X166370015Y-107860081D01*
X166380821Y-107841366D01*
X166498305Y-107673581D01*
X166512193Y-107657029D01*
X166657029Y-107512193D01*
X166673581Y-107498305D01*
X166841366Y-107380821D01*
X166860081Y-107370015D01*
X167045721Y-107283449D01*
X167066014Y-107276063D01*
X167263868Y-107223048D01*
X167285151Y-107219296D01*
X167489198Y-107201445D01*
X167510802Y-107201445D01*
X167714846Y-107219296D01*
G37*
G04 #@! TD.AperFunction*
G04 #@! TA.AperFunction,Conductor*
G36*
X132714846Y-70219296D02*
G01*
X132736131Y-70223049D01*
X132805744Y-70241701D01*
X132933981Y-70276062D01*
X132954282Y-70283451D01*
X133106020Y-70354208D01*
X133139915Y-70370014D01*
X133158633Y-70380821D01*
X133326418Y-70498305D01*
X133342976Y-70512199D01*
X133487800Y-70657023D01*
X133501694Y-70673581D01*
X133619178Y-70841366D01*
X133629985Y-70860084D01*
X133716545Y-71045710D01*
X133723938Y-71066022D01*
X133776950Y-71263868D01*
X133780703Y-71285154D01*
X133798554Y-71489193D01*
X133798554Y-71510807D01*
X133780703Y-71714845D01*
X133776950Y-71736131D01*
X133723938Y-71933977D01*
X133716545Y-71954289D01*
X133629985Y-72139915D01*
X133619178Y-72158633D01*
X133501694Y-72326418D01*
X133487800Y-72342976D01*
X133342976Y-72487800D01*
X133326418Y-72501694D01*
X133158633Y-72619178D01*
X133139915Y-72629985D01*
X132954289Y-72716545D01*
X132933977Y-72723938D01*
X132736131Y-72776950D01*
X132714845Y-72780703D01*
X132510807Y-72798554D01*
X132489193Y-72798554D01*
X132285154Y-72780703D01*
X132263868Y-72776950D01*
X132066022Y-72723938D01*
X132045710Y-72716545D01*
X131860084Y-72629985D01*
X131841366Y-72619178D01*
X131673581Y-72501694D01*
X131657023Y-72487800D01*
X131512199Y-72342976D01*
X131498305Y-72326418D01*
X131380821Y-72158633D01*
X131370014Y-72139915D01*
X131354208Y-72106020D01*
X131283451Y-71954282D01*
X131276061Y-71933977D01*
X131223049Y-71736131D01*
X131219296Y-71714845D01*
X131201445Y-71510807D01*
X131201445Y-71489193D01*
X131219296Y-71285154D01*
X131223049Y-71263868D01*
X131276063Y-71066014D01*
X131283449Y-71045721D01*
X131370015Y-70860081D01*
X131380821Y-70841366D01*
X131498305Y-70673581D01*
X131512193Y-70657029D01*
X131657029Y-70512193D01*
X131673581Y-70498305D01*
X131841366Y-70380821D01*
X131860081Y-70370015D01*
X132045721Y-70283449D01*
X132066014Y-70276063D01*
X132263868Y-70223048D01*
X132285151Y-70219296D01*
X132489198Y-70201445D01*
X132510802Y-70201445D01*
X132714846Y-70219296D01*
G37*
G04 #@! TD.AperFunction*
G04 #@! TA.AperFunction,Conductor*
G36*
X167714846Y-70219296D02*
G01*
X167736131Y-70223049D01*
X167805744Y-70241701D01*
X167933981Y-70276062D01*
X167954282Y-70283451D01*
X168106020Y-70354208D01*
X168139915Y-70370014D01*
X168158633Y-70380821D01*
X168326418Y-70498305D01*
X168342976Y-70512199D01*
X168487800Y-70657023D01*
X168501694Y-70673581D01*
X168619178Y-70841366D01*
X168629985Y-70860084D01*
X168716545Y-71045710D01*
X168723938Y-71066022D01*
X168776950Y-71263868D01*
X168780703Y-71285154D01*
X168798554Y-71489193D01*
X168798554Y-71510807D01*
X168780703Y-71714845D01*
X168776950Y-71736131D01*
X168723938Y-71933977D01*
X168716545Y-71954289D01*
X168629985Y-72139915D01*
X168619178Y-72158633D01*
X168501694Y-72326418D01*
X168487800Y-72342976D01*
X168342976Y-72487800D01*
X168326418Y-72501694D01*
X168158633Y-72619178D01*
X168139915Y-72629985D01*
X167954289Y-72716545D01*
X167933977Y-72723938D01*
X167736131Y-72776950D01*
X167714845Y-72780703D01*
X167510807Y-72798554D01*
X167489193Y-72798554D01*
X167285154Y-72780703D01*
X167263868Y-72776950D01*
X167066022Y-72723938D01*
X167045710Y-72716545D01*
X166860084Y-72629985D01*
X166841366Y-72619178D01*
X166673581Y-72501694D01*
X166657023Y-72487800D01*
X166512199Y-72342976D01*
X166498305Y-72326418D01*
X166380821Y-72158633D01*
X166370014Y-72139915D01*
X166354208Y-72106020D01*
X166283451Y-71954282D01*
X166276061Y-71933977D01*
X166223049Y-71736131D01*
X166219296Y-71714845D01*
X166201445Y-71510807D01*
X166201445Y-71489193D01*
X166219296Y-71285154D01*
X166223049Y-71263868D01*
X166276063Y-71066014D01*
X166283449Y-71045721D01*
X166370015Y-70860081D01*
X166380821Y-70841366D01*
X166498305Y-70673581D01*
X166512193Y-70657029D01*
X166657029Y-70512193D01*
X166673581Y-70498305D01*
X166841366Y-70380821D01*
X166860081Y-70370015D01*
X167045721Y-70283449D01*
X167066014Y-70276063D01*
X167263868Y-70223048D01*
X167285151Y-70219296D01*
X167489198Y-70201445D01*
X167510802Y-70201445D01*
X167714846Y-70219296D01*
G37*
G04 #@! TD.AperFunction*
G04 #@! TA.AperFunction,Conductor*
G36*
X169015469Y-69020185D02*
G01*
X169036111Y-69036819D01*
X169963181Y-69963888D01*
X169996666Y-70025211D01*
X169999500Y-70051569D01*
X169999500Y-109948430D01*
X169979815Y-110015469D01*
X169963181Y-110036111D01*
X169036111Y-110963181D01*
X168974788Y-110996666D01*
X168948430Y-110999500D01*
X131051569Y-110999500D01*
X130984530Y-110979815D01*
X130963888Y-110963181D01*
X130036819Y-110036111D01*
X130003334Y-109974788D01*
X130000500Y-109948430D01*
X130000500Y-108500001D01*
X131194532Y-108500001D01*
X131214364Y-108726686D01*
X131214366Y-108726697D01*
X131273258Y-108946488D01*
X131273261Y-108946497D01*
X131369431Y-109152732D01*
X131369432Y-109152734D01*
X131499954Y-109339141D01*
X131660858Y-109500045D01*
X131660861Y-109500047D01*
X131847266Y-109630568D01*
X132053504Y-109726739D01*
X132273308Y-109785635D01*
X132420973Y-109798554D01*
X132499998Y-109805468D01*
X132500000Y-109805468D01*
X132500002Y-109805468D01*
X132579027Y-109798554D01*
X132726692Y-109785635D01*
X132946496Y-109726739D01*
X133152734Y-109630568D01*
X133339139Y-109500047D01*
X133500047Y-109339139D01*
X133630568Y-109152734D01*
X133726739Y-108946496D01*
X133785635Y-108726692D01*
X133805468Y-108500001D01*
X166194532Y-108500001D01*
X166214364Y-108726686D01*
X166214366Y-108726697D01*
X166273258Y-108946488D01*
X166273261Y-108946497D01*
X166369431Y-109152732D01*
X166369432Y-109152734D01*
X166499954Y-109339141D01*
X166660858Y-109500045D01*
X166660861Y-109500047D01*
X166847266Y-109630568D01*
X167053504Y-109726739D01*
X167273308Y-109785635D01*
X167420973Y-109798554D01*
X167499998Y-109805468D01*
X167500000Y-109805468D01*
X167500002Y-109805468D01*
X167579027Y-109798554D01*
X167726692Y-109785635D01*
X167946496Y-109726739D01*
X168152734Y-109630568D01*
X168339139Y-109500047D01*
X168500047Y-109339139D01*
X168630568Y-109152734D01*
X168726739Y-108946496D01*
X168785635Y-108726692D01*
X168805468Y-108500000D01*
X168785635Y-108273308D01*
X168726739Y-108053504D01*
X168630568Y-107847266D01*
X168500047Y-107660861D01*
X168500045Y-107660858D01*
X168339141Y-107499954D01*
X168152734Y-107369432D01*
X168152732Y-107369431D01*
X167946497Y-107273261D01*
X167946488Y-107273258D01*
X167726697Y-107214366D01*
X167726693Y-107214365D01*
X167726692Y-107214365D01*
X167726691Y-107214364D01*
X167726686Y-107214364D01*
X167500002Y-107194532D01*
X167499998Y-107194532D01*
X167273313Y-107214364D01*
X167273302Y-107214366D01*
X167053511Y-107273258D01*
X167053502Y-107273261D01*
X166847267Y-107369431D01*
X166847265Y-107369432D01*
X166660858Y-107499954D01*
X166499954Y-107660858D01*
X166369432Y-107847265D01*
X166369431Y-107847267D01*
X166273261Y-108053502D01*
X166273258Y-108053511D01*
X166214366Y-108273302D01*
X166214364Y-108273313D01*
X166194532Y-108499998D01*
X166194532Y-108500001D01*
X133805468Y-108500001D01*
X133805468Y-108500000D01*
X133785635Y-108273308D01*
X133726739Y-108053504D01*
X133630568Y-107847266D01*
X133500047Y-107660861D01*
X133500045Y-107660858D01*
X133339141Y-107499954D01*
X133152734Y-107369432D01*
X133152732Y-107369431D01*
X132946497Y-107273261D01*
X132946488Y-107273258D01*
X132726697Y-107214366D01*
X132726693Y-107214365D01*
X132726692Y-107214365D01*
X132726691Y-107214364D01*
X132726686Y-107214364D01*
X132500002Y-107194532D01*
X132499998Y-107194532D01*
X132273313Y-107214364D01*
X132273302Y-107214366D01*
X132053511Y-107273258D01*
X132053502Y-107273261D01*
X131847267Y-107369431D01*
X131847265Y-107369432D01*
X131660858Y-107499954D01*
X131499954Y-107660858D01*
X131369432Y-107847265D01*
X131369431Y-107847267D01*
X131273261Y-108053502D01*
X131273258Y-108053511D01*
X131214366Y-108273302D01*
X131214364Y-108273313D01*
X131194532Y-108499998D01*
X131194532Y-108500001D01*
X130000500Y-108500001D01*
X130000500Y-100124000D01*
X130020185Y-100056961D01*
X130072989Y-100011206D01*
X130124500Y-100000000D01*
X136970728Y-100000000D01*
X137026181Y-100013090D01*
X139000000Y-101000000D01*
X161000000Y-101000000D01*
X163142687Y-98857312D01*
X163146815Y-98853545D01*
X163328184Y-98702611D01*
X163514612Y-98494545D01*
X163525621Y-98477904D01*
X163541345Y-98458654D01*
X164000000Y-98000000D01*
X164000000Y-93000000D01*
X164000000Y-87000000D01*
X164000000Y-82000000D01*
X161000000Y-79000000D01*
X139000000Y-79000000D01*
X137026181Y-79986909D01*
X136970728Y-80000000D01*
X130124500Y-80000000D01*
X130057461Y-79980315D01*
X130011706Y-79927511D01*
X130000500Y-79876000D01*
X130000500Y-79000000D01*
X130000500Y-71500001D01*
X131194532Y-71500001D01*
X131214364Y-71726686D01*
X131214366Y-71726697D01*
X131273258Y-71946488D01*
X131273261Y-71946497D01*
X131369431Y-72152732D01*
X131369432Y-72152734D01*
X131499954Y-72339141D01*
X131660858Y-72500045D01*
X131660861Y-72500047D01*
X131847266Y-72630568D01*
X132053504Y-72726739D01*
X132273308Y-72785635D01*
X132420973Y-72798554D01*
X132499998Y-72805468D01*
X132500000Y-72805468D01*
X132500002Y-72805468D01*
X132579027Y-72798554D01*
X132726692Y-72785635D01*
X132946496Y-72726739D01*
X133152734Y-72630568D01*
X133339139Y-72500047D01*
X133500047Y-72339139D01*
X133630568Y-72152734D01*
X133726739Y-71946496D01*
X133785635Y-71726692D01*
X133805468Y-71500001D01*
X166194532Y-71500001D01*
X166214364Y-71726686D01*
X166214366Y-71726697D01*
X166273258Y-71946488D01*
X166273261Y-71946497D01*
X166369431Y-72152732D01*
X166369432Y-72152734D01*
X166499954Y-72339141D01*
X166660858Y-72500045D01*
X166660861Y-72500047D01*
X166847266Y-72630568D01*
X167053504Y-72726739D01*
X167273308Y-72785635D01*
X167420973Y-72798554D01*
X167499998Y-72805468D01*
X167500000Y-72805468D01*
X167500002Y-72805468D01*
X167579027Y-72798554D01*
X167726692Y-72785635D01*
X167946496Y-72726739D01*
X168152734Y-72630568D01*
X168339139Y-72500047D01*
X168500047Y-72339139D01*
X168630568Y-72152734D01*
X168726739Y-71946496D01*
X168785635Y-71726692D01*
X168805468Y-71500000D01*
X168785635Y-71273308D01*
X168726739Y-71053504D01*
X168630568Y-70847266D01*
X168500047Y-70660861D01*
X168500045Y-70660858D01*
X168339141Y-70499954D01*
X168152734Y-70369432D01*
X168152732Y-70369431D01*
X167946497Y-70273261D01*
X167946488Y-70273258D01*
X167726697Y-70214366D01*
X167726693Y-70214365D01*
X167726692Y-70214365D01*
X167726691Y-70214364D01*
X167726686Y-70214364D01*
X167500002Y-70194532D01*
X167499998Y-70194532D01*
X167273313Y-70214364D01*
X167273302Y-70214366D01*
X167053511Y-70273258D01*
X167053502Y-70273261D01*
X166847267Y-70369431D01*
X166847265Y-70369432D01*
X166660858Y-70499954D01*
X166499954Y-70660858D01*
X166369432Y-70847265D01*
X166369431Y-70847267D01*
X166273261Y-71053502D01*
X166273258Y-71053511D01*
X166214366Y-71273302D01*
X166214364Y-71273313D01*
X166194532Y-71499998D01*
X166194532Y-71500001D01*
X133805468Y-71500001D01*
X133805468Y-71500000D01*
X133785635Y-71273308D01*
X133726739Y-71053504D01*
X133630568Y-70847266D01*
X133500047Y-70660861D01*
X133500045Y-70660858D01*
X133339141Y-70499954D01*
X133152734Y-70369432D01*
X133152732Y-70369431D01*
X132946497Y-70273261D01*
X132946488Y-70273258D01*
X132726697Y-70214366D01*
X132726693Y-70214365D01*
X132726692Y-70214365D01*
X132726691Y-70214364D01*
X132726686Y-70214364D01*
X132500002Y-70194532D01*
X132499998Y-70194532D01*
X132273313Y-70214364D01*
X132273302Y-70214366D01*
X132053511Y-70273258D01*
X132053502Y-70273261D01*
X131847267Y-70369431D01*
X131847265Y-70369432D01*
X131660858Y-70499954D01*
X131499954Y-70660858D01*
X131369432Y-70847265D01*
X131369431Y-70847267D01*
X131273261Y-71053502D01*
X131273258Y-71053511D01*
X131214366Y-71273302D01*
X131214364Y-71273313D01*
X131194532Y-71499998D01*
X131194532Y-71500001D01*
X130000500Y-71500001D01*
X130000500Y-70051565D01*
X130020184Y-69984530D01*
X130036813Y-69963893D01*
X130963888Y-69036819D01*
X131025211Y-69003334D01*
X131051569Y-69000500D01*
X168948430Y-69000500D01*
X169015469Y-69020185D01*
G37*
G04 #@! TD.AperFunction*
M02*
