M48
INCH,TZ
T1C0.0157
T2C0.0591
T3C0.0669
%
G90
G05
T1
X51575Y-29134
X51575Y-29528
X51575Y-29921
X51575Y-30315
X51575Y-30709
X51575Y-31102
X51575Y-39764
X51575Y-40157
X51575Y-40551
X51575Y-40945
X51575Y-41339
X51575Y-41732
X51969Y-29134
X51969Y-31102
X51969Y-39764
X51969Y-41732
X52362Y-29134
X52362Y-31102
X52362Y-39764
X52362Y-41732
X52756Y-29134
X52756Y-31102
X52756Y-39764
X52756Y-41732
X53150Y-27559
X53150Y-27953
X53150Y-28346
X53150Y-28740
X53150Y-29134
X53150Y-31102
X53150Y-39764
X53150Y-41732
X53150Y-42126
X53150Y-42520
X53150Y-42913
X53150Y-43307
X53543Y-27559
X53543Y-29134
X53543Y-31102
X53543Y-39764
X53543Y-41732
X53543Y-43307
X53937Y-27559
X53937Y-29134
X53937Y-30709
X53937Y-31102
X53937Y-39764
X53937Y-40157
X53937Y-41732
X53937Y-43307
X54331Y-27559
X54331Y-29134
X54331Y-30709
X54331Y-40157
X54331Y-41732
X54331Y-43307
X54724Y-27559
X54724Y-29134
X54724Y-30709
X54724Y-40157
X54724Y-41732
X54724Y-43307
X55118Y-27559
X55118Y-29134
X55118Y-30709
X55118Y-34646
X55118Y-35039
X55118Y-35433
X55118Y-35827
X55118Y-36220
X55118Y-40157
X55118Y-41732
X55118Y-41732
X55118Y-43307
X55118Y-43307
X55512Y-27559
X55512Y-29134
X55512Y-30709
X55512Y-34646
X55512Y-36220
X55512Y-40157
X55512Y-41732
X55512Y-43307
X55906Y-27559
X55906Y-29134
X55906Y-30709
X55906Y-34646
X55906Y-36220
X55906Y-40157
X55906Y-41732
X55906Y-43307
X56299Y-27559
X56299Y-29134
X56299Y-30709
X56299Y-34646
X56299Y-36220
X56299Y-40157
X56299Y-41732
X56299Y-43307
X56693Y-27559
X56693Y-29134
X56693Y-30709
X56693Y-34646
X56693Y-36220
X56693Y-40157
X56693Y-41732
X56693Y-43307
X57087Y-27559
X57087Y-29134
X57087Y-30709
X57087Y-34646
X57087Y-36220
X57087Y-36220
X57087Y-40157
X57087Y-41732
X57087Y-43307
X57480Y-27559
X57480Y-29134
X57480Y-30709
X57480Y-34646
X57480Y-36220
X57480Y-40157
X57480Y-41732
X57480Y-41732
X57480Y-43307
X57874Y-27559
X57874Y-29134
X57874Y-30709
X57874Y-34646
X57874Y-36220
X57874Y-40157
X57874Y-41732
X57874Y-43307
X58268Y-27559
X58268Y-29134
X58268Y-30709
X58268Y-34646
X58268Y-36220
X58268Y-40157
X58268Y-41732
X58268Y-43307
X58661Y-27559
X58661Y-29134
X58661Y-30709
X58661Y-34646
X58661Y-36220
X58661Y-40157
X58661Y-41732
X58661Y-43307
X59055Y-27559
X59055Y-29134
X59055Y-30709
X59055Y-34646
X59055Y-36220
X59055Y-40157
X59055Y-41732
X59055Y-41732
X59055Y-43307
X59449Y-27559
X59449Y-29134
X59449Y-30709
X59449Y-34646
X59449Y-36220
X59449Y-40157
X59449Y-41732
X59449Y-43307
X59843Y-27559
X59843Y-29134
X59843Y-30709
X59843Y-34646
X59843Y-36220
X59843Y-40157
X59843Y-41732
X59843Y-43307
X60236Y-27559
X60236Y-29134
X60236Y-30709
X60236Y-34646
X60236Y-36220
X60236Y-40157
X60236Y-41732
X60236Y-41732
X60236Y-43307
X60630Y-27559
X60630Y-29134
X60630Y-30709
X60630Y-34646
X60630Y-36220
X60630Y-40157
X60630Y-41732
X60630Y-43307
X61024Y-27559
X61024Y-29134
X61024Y-30709
X61024Y-34646
X61024Y-35039
X61024Y-35433
X61024Y-35827
X61024Y-36220
X61024Y-40157
X61024Y-41732
X61024Y-43307
X61417Y-27559
X61417Y-29134
X61417Y-30709
X61417Y-40157
X61417Y-41732
X61417Y-43307
X61811Y-27559
X61811Y-27559
X61811Y-29134
X61811Y-30709
X61811Y-40157
X61811Y-41732
X61811Y-43307
X62205Y-27559
X62205Y-29134
X62205Y-30709
X62205Y-40157
X62205Y-41732
X62205Y-43307
X62303Y-34646
X62303Y-35039
X62303Y-35433
X62303Y-35827
X62303Y-36220
X62598Y-27559
X62598Y-29134
X62598Y-30709
X62598Y-40157
X62598Y-41732
X62598Y-43307
X62992Y-27559
X62992Y-29134
X62992Y-30709
X62992Y-40157
X62992Y-41732
X62992Y-43307
X63386Y-27559
X63386Y-29134
X63386Y-30709
X63386Y-40157
X63386Y-41732
X63386Y-43307
X63780Y-27559
X63780Y-29134
X63780Y-31102
X63780Y-39764
X63780Y-41732
X63780Y-43307
X63878Y-34646
X63878Y-35039
X63878Y-35433
X63878Y-35827
X63878Y-36220
X64173Y-27559
X64173Y-29134
X64173Y-31496
X64173Y-39370
X64173Y-41732
X64173Y-43307
X64567Y-27559
X64567Y-29134
X64567Y-31890
X64567Y-38976
X64567Y-41732
X64567Y-41732
X64567Y-43307
X64961Y-27559
X64961Y-27953
X64961Y-28346
X64961Y-28740
X64961Y-29134
X64961Y-29528
X64961Y-29528
X64961Y-29921
X64961Y-30315
X64961Y-30709
X64961Y-31102
X64961Y-31496
X64961Y-31890
X64961Y-32283
X64961Y-32677
X64961Y-33071
X64961Y-33465
X64961Y-33858
X64961Y-34252
X64961Y-34646
X64961Y-35039
X64961Y-35433
X64961Y-35827
X64961Y-36220
X64961Y-36614
X64961Y-37008
X64961Y-37402
X64961Y-37795
X64961Y-38189
X64961Y-38583
X64961Y-38976
X64961Y-39370
X64961Y-39764
X64961Y-40157
X64961Y-40551
X64961Y-40945
X64961Y-41339
X64961Y-41732
X64961Y-42126
X64961Y-42520
X64961Y-42913
X64961Y-43307
X65354Y-29134
X65354Y-41732
X65748Y-29134
X65748Y-41732
X66142Y-29134
X66142Y-41732
X66535Y-29134
X66535Y-29528
X66535Y-29921
X66535Y-30315
X66535Y-30709
X66535Y-31102
X66535Y-31496
X66535Y-31890
X66535Y-32283
X66535Y-32677
X66535Y-33071
X66535Y-33465
X66535Y-33858
X66535Y-34252
X66535Y-34646
X66535Y-35039
X66535Y-35433
X66535Y-35827
X66535Y-36220
X66535Y-36614
X66535Y-37008
X66535Y-37402
X66535Y-37795
X66535Y-38189
X66535Y-38583
X66535Y-38976
X66535Y-39370
X66535Y-39764
X66535Y-40157
X66535Y-40551
X66535Y-40945
X66535Y-41339
X66535Y-41732
T2
X52740Y-37402
X52756Y-33465
T3
X51740Y-36402
X51740Y-38402
X51756Y-32465
X51756Y-34465
X53740Y-36402
X53740Y-38402
X53756Y-32465
X53756Y-34465
T0
M30
