M48
INCH,TZ
T1C0.0157
%
G90
G05
T1
X55020Y-32382
X55020Y-32776
X55020Y-33169
X55020Y-33563
X55020Y-33957
X55020Y-34350
X55020Y-43012
X55020Y-43406
X55020Y-43799
X55020Y-44193
X55020Y-44587
X55020Y-44980
X55413Y-32382
X55413Y-34350
X55413Y-43012
X55413Y-44980
X55807Y-32382
X55807Y-34350
X55807Y-43012
X55807Y-44980
X56201Y-32382
X56201Y-34350
X56201Y-43012
X56201Y-44980
X56594Y-30807
X56594Y-31201
X56594Y-31594
X56594Y-31988
X56594Y-32382
X56594Y-34350
X56594Y-43012
X56594Y-44980
X56594Y-45374
X56594Y-45768
X56594Y-46161
X56594Y-46555
X56988Y-30807
X56988Y-32382
X56988Y-34350
X56988Y-43012
X56988Y-44980
X56988Y-46555
X57382Y-30807
X57382Y-32382
X57382Y-33957
X57382Y-34350
X57382Y-43012
X57382Y-43406
X57382Y-44980
X57382Y-46555
X57776Y-30807
X57776Y-32382
X57776Y-33957
X57776Y-43406
X57776Y-44980
X57776Y-46555
X58169Y-30807
X58169Y-32382
X58169Y-33957
X58169Y-43406
X58169Y-44980
X58169Y-46555
X58563Y-30807
X58563Y-32382
X58563Y-33957
X58563Y-43406
X58563Y-44980
X58563Y-44980
X58563Y-46555
X58563Y-46555
X58957Y-30807
X58957Y-32382
X58957Y-33957
X58957Y-34350
X58957Y-34744
X58957Y-35138
X58957Y-35531
X58957Y-35925
X58957Y-36319
X58957Y-36713
X58957Y-37106
X58957Y-37500
X58957Y-37894
X58957Y-38287
X58957Y-38681
X58957Y-39075
X58957Y-39469
X58957Y-39862
X58957Y-40256
X58957Y-40650
X58957Y-41043
X58957Y-41437
X58957Y-41831
X58957Y-42224
X58957Y-42618
X58957Y-43012
X58957Y-43406
X58957Y-44980
X58957Y-46555
X59350Y-30807
X59350Y-32382
X59350Y-33957
X59350Y-37894
X59350Y-39469
X59350Y-43406
X59350Y-44980
X59350Y-46555
X59744Y-30807
X59744Y-32382
X59744Y-33957
X59744Y-37894
X59744Y-39469
X59744Y-43406
X59744Y-44980
X59744Y-46555
X60138Y-30807
X60138Y-32382
X60138Y-33957
X60138Y-37894
X60138Y-39469
X60138Y-43406
X60138Y-44980
X60138Y-46555
X60531Y-30807
X60531Y-32382
X60531Y-33957
X60531Y-37894
X60531Y-39469
X60531Y-39469
X60531Y-43406
X60531Y-44980
X60531Y-46555
X60925Y-30807
X60925Y-32382
X60925Y-33957
X60925Y-37894
X60925Y-39469
X60925Y-43406
X60925Y-44980
X60925Y-44980
X60925Y-46555
X61319Y-30807
X61319Y-32382
X61319Y-33957
X61319Y-37894
X61319Y-39469
X61319Y-43406
X61319Y-44980
X61319Y-46555
X61713Y-30807
X61713Y-32382
X61713Y-33957
X61713Y-37894
X61713Y-39469
X61713Y-43406
X61713Y-44980
X61713Y-46555
X62106Y-30807
X62106Y-32382
X62106Y-33957
X62106Y-37894
X62106Y-39469
X62106Y-43406
X62106Y-44980
X62106Y-46555
X62500Y-30807
X62500Y-32382
X62500Y-33957
X62500Y-37894
X62500Y-39469
X62500Y-43406
X62500Y-44980
X62500Y-44980
X62500Y-46555
X62894Y-30807
X62894Y-32382
X62894Y-33957
X62894Y-37894
X62894Y-39469
X62894Y-43406
X62894Y-44980
X62894Y-46555
X63287Y-30807
X63287Y-32382
X63287Y-33957
X63287Y-37894
X63287Y-39469
X63287Y-43406
X63287Y-44980
X63287Y-46555
X63681Y-30807
X63681Y-32382
X63681Y-33957
X63681Y-37894
X63681Y-39469
X63681Y-43406
X63681Y-44980
X63681Y-44980
X63681Y-46555
X64075Y-30807
X64075Y-32382
X64075Y-33957
X64075Y-37894
X64075Y-39469
X64075Y-43406
X64075Y-44980
X64075Y-46555
X64469Y-30807
X64469Y-32382
X64469Y-33957
X64469Y-34350
X64469Y-34744
X64469Y-35138
X64469Y-35531
X64469Y-35925
X64469Y-36319
X64469Y-36713
X64469Y-37106
X64469Y-37500
X64469Y-37894
X64469Y-38287
X64469Y-38681
X64469Y-39075
X64469Y-39469
X64469Y-39862
X64469Y-40256
X64469Y-40650
X64469Y-41043
X64469Y-41437
X64469Y-41831
X64469Y-42224
X64469Y-42618
X64469Y-43012
X64469Y-43406
X64469Y-44980
X64469Y-46555
X64862Y-30807
X64862Y-32382
X64862Y-33957
X64862Y-36319
X64862Y-41043
X64862Y-43406
X64862Y-44980
X64862Y-46555
X65256Y-30807
X65256Y-30807
X65256Y-32382
X65256Y-33957
X65256Y-36319
X65256Y-41043
X65256Y-43406
X65256Y-44980
X65256Y-46555
X65650Y-30807
X65650Y-32382
X65650Y-33957
X65650Y-36319
X65650Y-41043
X65650Y-43406
X65650Y-44980
X65650Y-46555
X65748Y-37894
X65748Y-38287
X65748Y-38681
X65748Y-39075
X65748Y-39469
X65748Y-39862
X66043Y-30807
X66043Y-32382
X66043Y-33957
X66043Y-36319
X66043Y-41043
X66043Y-43406
X66043Y-44980
X66043Y-46555
X66437Y-30807
X66437Y-32382
X66437Y-33957
X66437Y-36319
X66437Y-41043
X66437Y-43406
X66437Y-44980
X66437Y-46555
X66831Y-30807
X66831Y-32382
X66831Y-33957
X66831Y-36319
X66831Y-41043
X66831Y-43406
X66831Y-44980
X66831Y-46555
X67224Y-30807
X67224Y-32382
X67224Y-34350
X67224Y-36319
X67224Y-37894
X67224Y-38287
X67224Y-38681
X67224Y-39075
X67224Y-39469
X67224Y-39862
X67224Y-41043
X67224Y-43012
X67224Y-44980
X67224Y-46555
X67618Y-30807
X67618Y-32382
X67618Y-34744
X67618Y-36319
X67618Y-41043
X67618Y-42618
X67618Y-44980
X67618Y-46555
X68012Y-30807
X68012Y-32382
X68012Y-35138
X68012Y-36319
X68012Y-41043
X68012Y-42224
X68012Y-44980
X68012Y-44980
X68012Y-46555
X68406Y-30807
X68406Y-31201
X68406Y-31594
X68406Y-31988
X68406Y-32382
X68406Y-32776
X68406Y-32776
X68406Y-33169
X68406Y-33563
X68406Y-33957
X68406Y-34350
X68406Y-34744
X68406Y-35138
X68406Y-35531
X68406Y-35925
X68406Y-36319
X68406Y-36713
X68406Y-37106
X68406Y-37500
X68406Y-37894
X68406Y-38287
X68406Y-38681
X68406Y-39075
X68406Y-39469
X68406Y-39862
X68406Y-40256
X68406Y-40650
X68406Y-41043
X68406Y-41437
X68406Y-41831
X68406Y-42224
X68406Y-42618
X68406Y-43012
X68406Y-43406
X68406Y-43799
X68406Y-44193
X68406Y-44587
X68406Y-44980
X68406Y-45374
X68406Y-45768
X68406Y-46161
X68406Y-46555
X68799Y-32382
X68799Y-44980
X69193Y-32382
X69193Y-44980
X69587Y-32382
X69587Y-44980
X69980Y-32382
X69980Y-32776
X69980Y-33169
X69980Y-33563
X69980Y-33957
X69980Y-34350
X69980Y-34744
X69980Y-35138
X69980Y-35531
X69980Y-35925
X69980Y-36319
X69980Y-36713
X69980Y-37106
X69980Y-37500
X69980Y-37894
X69980Y-38287
X69980Y-38681
X69980Y-39075
X69980Y-39469
X69980Y-39862
X69980Y-40256
X69980Y-40650
X69980Y-41043
X69980Y-41437
X69980Y-41831
X69980Y-42224
X69980Y-42618
X69980Y-43012
X69980Y-43406
X69980Y-43799
X69980Y-44193
X69980Y-44587
X69980Y-44980
T0
M30
