G04 #@! TF.GenerationSoftware,KiCad,Pcbnew,7.0.7*
G04 #@! TF.CreationDate,2023-11-07T16:36:37+01:00*
G04 #@! TF.ProjectId,semkicker_intermediate_layer,73656d6b-6963-46b6-9572-5f696e746572,rev?*
G04 #@! TF.SameCoordinates,Original*
G04 #@! TF.FileFunction,Copper,L1,Top*
G04 #@! TF.FilePolarity,Positive*
%FSLAX46Y46*%
G04 Gerber Fmt 4.6, Leading zero omitted, Abs format (unit mm)*
G04 Created by KiCad (PCBNEW 7.0.7) date 2023-11-07 16:36:37*
%MOMM*%
%LPD*%
G01*
G04 APERTURE LIST*
G04 #@! TA.AperFunction,ViaPad*
%ADD10C,0.800000*%
G04 #@! TD*
G04 #@! TA.AperFunction,Conductor*
%ADD11C,2.800000*%
G04 #@! TD*
G04 APERTURE END LIST*
D10*
X170750000Y-101250000D03*
X170750000Y-100250000D03*
X170750000Y-99250000D03*
X170750000Y-98250000D03*
X170750000Y-97250000D03*
X170750000Y-96250000D03*
X167000000Y-97250000D03*
X167000000Y-98250000D03*
X167000000Y-99250000D03*
X167000000Y-100250000D03*
X167000000Y-101250000D03*
X167000000Y-96250000D03*
X172750000Y-104250000D03*
X167750000Y-104250000D03*
X171750000Y-104250000D03*
X170750000Y-104250000D03*
X166750000Y-104250000D03*
X169750000Y-104250000D03*
X165750000Y-104250000D03*
X168750000Y-104250000D03*
X164750000Y-104250000D03*
X172750000Y-92250000D03*
X170750000Y-92250000D03*
X171750000Y-92250000D03*
X169750000Y-92250000D03*
X167750000Y-92250000D03*
X168750000Y-92250000D03*
X166750000Y-92250000D03*
X164750000Y-92250000D03*
X165750000Y-92250000D03*
X149750000Y-92250000D03*
X149750000Y-90250000D03*
X149750000Y-88250000D03*
X149750000Y-95250000D03*
X149750000Y-93250000D03*
X149750000Y-94250000D03*
X149750000Y-87250000D03*
X149750000Y-91250000D03*
X149750000Y-89250000D03*
X149750000Y-106250000D03*
X149750000Y-104250000D03*
X149750000Y-102250000D03*
X149750000Y-109250000D03*
X149750000Y-107250000D03*
X149750000Y-108250000D03*
X149750000Y-101250000D03*
X149750000Y-105250000D03*
X149750000Y-103250000D03*
X163750000Y-106250000D03*
X163750000Y-104250000D03*
X163750000Y-102250000D03*
X163750000Y-109250000D03*
X163750000Y-107250000D03*
X163750000Y-108250000D03*
X163750000Y-101250000D03*
X163750000Y-105250000D03*
X163750000Y-103250000D03*
X163750000Y-88250000D03*
X163750000Y-93250000D03*
X163750000Y-89250000D03*
X163750000Y-90250000D03*
X163750000Y-92250000D03*
X163750000Y-87250000D03*
X163750000Y-95250000D03*
X163750000Y-94250000D03*
X163750000Y-91250000D03*
X166750000Y-82250000D03*
X153750000Y-110250000D03*
X158750000Y-96250000D03*
X177750000Y-87250000D03*
X173750000Y-80250000D03*
X143750000Y-114250000D03*
X173750000Y-110250000D03*
X166750000Y-114250000D03*
X147750000Y-78250000D03*
X143750000Y-78250000D03*
X157750000Y-110250000D03*
X158750000Y-78250000D03*
X143750000Y-82250000D03*
X139750000Y-83250000D03*
X159750000Y-118250000D03*
X139750000Y-111250000D03*
X173750000Y-107250000D03*
X169750000Y-86250000D03*
X177750000Y-101250000D03*
X157750000Y-96250000D03*
X177750000Y-97250000D03*
X156750000Y-86250000D03*
X161750000Y-100250000D03*
X169750000Y-110250000D03*
X173750000Y-81250000D03*
X154750000Y-114250000D03*
X150750000Y-114250000D03*
X159750000Y-96250000D03*
X149750000Y-82250000D03*
X174750000Y-114250000D03*
X177750000Y-84250000D03*
X139750000Y-109250000D03*
X162750000Y-118250000D03*
X139750000Y-85250000D03*
X177750000Y-100250000D03*
X173750000Y-82250000D03*
X157750000Y-78250000D03*
X157750000Y-118250000D03*
X173750000Y-84250000D03*
X139750000Y-87250000D03*
X167750000Y-86250000D03*
X165750000Y-78250000D03*
X164750000Y-82250000D03*
X163750000Y-97250000D03*
X173750000Y-108250000D03*
X149750000Y-99250000D03*
X163750000Y-86250000D03*
X155750000Y-118250000D03*
X146750000Y-78250000D03*
X142750000Y-109250000D03*
X144750000Y-109250000D03*
X164750000Y-78250000D03*
X173750000Y-112250000D03*
X173750000Y-88250000D03*
X173750000Y-97250000D03*
X145750000Y-82250000D03*
X159750000Y-86250000D03*
X152750000Y-114250000D03*
X177750000Y-109250000D03*
X173750000Y-109250000D03*
X152750000Y-96250000D03*
X147750000Y-110250000D03*
X161750000Y-86250000D03*
X148750000Y-110250000D03*
X157750000Y-100250000D03*
X143750000Y-118250000D03*
X159750000Y-110250000D03*
X149750000Y-98250000D03*
X158750000Y-110250000D03*
X173750000Y-85250000D03*
X140750000Y-114250000D03*
X171750000Y-88250000D03*
X149750000Y-96250000D03*
X143750000Y-81250000D03*
X152750000Y-86250000D03*
X170750000Y-87250000D03*
X177750000Y-86250000D03*
X153750000Y-100250000D03*
X163750000Y-100250000D03*
X150750000Y-110250000D03*
X154750000Y-86250000D03*
X160750000Y-96250000D03*
X145750000Y-87250000D03*
X173750000Y-86250000D03*
X161750000Y-96250000D03*
X147750000Y-86250000D03*
X148750000Y-114250000D03*
X173750000Y-114250000D03*
X150750000Y-96250000D03*
X170750000Y-82250000D03*
X157750000Y-82250000D03*
X162750000Y-114250000D03*
X171750000Y-108250000D03*
X170750000Y-109250000D03*
X149750000Y-86250000D03*
X161750000Y-114250000D03*
X177750000Y-113250000D03*
X173750000Y-91250000D03*
X162750000Y-78250000D03*
X156750000Y-118250000D03*
X164750000Y-114250000D03*
X151750000Y-114250000D03*
X142750000Y-87250000D03*
X155750000Y-110250000D03*
X168750000Y-118250000D03*
X163750000Y-96250000D03*
X171750000Y-78250000D03*
X177750000Y-92250000D03*
X143750000Y-87250000D03*
X154750000Y-110250000D03*
X143750000Y-117250000D03*
X171750000Y-118250000D03*
X148750000Y-114250000D03*
X173750000Y-95250000D03*
X150750000Y-82250000D03*
X164750000Y-86250000D03*
X173750000Y-103250000D03*
X173750000Y-87250000D03*
X168750000Y-114250000D03*
X165750000Y-114250000D03*
X173750000Y-83250000D03*
X145750000Y-114250000D03*
X155750000Y-114250000D03*
X167750000Y-114250000D03*
X160750000Y-78250000D03*
X150750000Y-118250000D03*
X157750000Y-114250000D03*
X148750000Y-118250000D03*
X149750000Y-78250000D03*
X167750000Y-82250000D03*
X140750000Y-87250000D03*
X177750000Y-99250000D03*
X142750000Y-114250000D03*
X139750000Y-86250000D03*
X173750000Y-111250000D03*
X173750000Y-92250000D03*
X164750000Y-110250000D03*
X173750000Y-115250000D03*
X148750000Y-82250000D03*
X149750000Y-110250000D03*
X177750000Y-112250000D03*
X143750000Y-116250000D03*
X173750000Y-96250000D03*
X153750000Y-86250000D03*
X173750000Y-100250000D03*
X139750000Y-113250000D03*
X172750000Y-89250000D03*
X144750000Y-118250000D03*
X161750000Y-114250000D03*
X158750000Y-114250000D03*
X153750000Y-118250000D03*
X146750000Y-82250000D03*
X163750000Y-78250000D03*
X173750000Y-89250000D03*
X177750000Y-105250000D03*
X173750000Y-113250000D03*
X169750000Y-114250000D03*
X177750000Y-102250000D03*
X163750000Y-114250000D03*
X151750000Y-78250000D03*
X174750000Y-82250000D03*
X177750000Y-98250000D03*
X139750000Y-82250000D03*
X168750000Y-78250000D03*
X145750000Y-118250000D03*
X139750000Y-114250000D03*
X155750000Y-78250000D03*
X140750000Y-109250000D03*
X146750000Y-114250000D03*
X154750000Y-114250000D03*
X155750000Y-100250000D03*
X152750000Y-100250000D03*
X162750000Y-96250000D03*
X158750000Y-86250000D03*
X173750000Y-99250000D03*
X177750000Y-106250000D03*
X177750000Y-103250000D03*
X172750000Y-118250000D03*
X177750000Y-90250000D03*
X173750000Y-117250000D03*
X144750000Y-78250000D03*
X173750000Y-94250000D03*
X149750000Y-114250000D03*
X161750000Y-78250000D03*
X141750000Y-114250000D03*
X177750000Y-88250000D03*
X166750000Y-110250000D03*
X158750000Y-100250000D03*
X152750000Y-78250000D03*
X173750000Y-90250000D03*
X145750000Y-78250000D03*
X160750000Y-110250000D03*
X159750000Y-114250000D03*
X144750000Y-87250000D03*
X169750000Y-82250000D03*
X155750000Y-96250000D03*
X170750000Y-114250000D03*
X169750000Y-118250000D03*
X151750000Y-96250000D03*
X162750000Y-86250000D03*
X162750000Y-100250000D03*
X160750000Y-86250000D03*
X177750000Y-107250000D03*
X163750000Y-99250000D03*
X149750000Y-97250000D03*
X177750000Y-91250000D03*
X140750000Y-82250000D03*
X172750000Y-114250000D03*
X163750000Y-110250000D03*
X139750000Y-84250000D03*
X141750000Y-109250000D03*
X155750000Y-86250000D03*
X166750000Y-78250000D03*
X143750000Y-109250000D03*
X153750000Y-78250000D03*
X177750000Y-108250000D03*
X172750000Y-107250000D03*
X160750000Y-82250000D03*
X173750000Y-98250000D03*
X150750000Y-86250000D03*
X154750000Y-82250000D03*
X143750000Y-79250000D03*
X154750000Y-78250000D03*
X173750000Y-116250000D03*
X147750000Y-82250000D03*
X141750000Y-87250000D03*
X173750000Y-101250000D03*
X161750000Y-118250000D03*
X154750000Y-118250000D03*
X150750000Y-78250000D03*
X170750000Y-118250000D03*
X153750000Y-114250000D03*
X165750000Y-110250000D03*
X159750000Y-82250000D03*
X143750000Y-115250000D03*
X173750000Y-93250000D03*
X143750000Y-80250000D03*
X144750000Y-82250000D03*
X177750000Y-104250000D03*
X151750000Y-110250000D03*
X161750000Y-82250000D03*
X165750000Y-118250000D03*
X173750000Y-105250000D03*
X149750000Y-118250000D03*
X156750000Y-82250000D03*
X173750000Y-102250000D03*
X148750000Y-118250000D03*
X151750000Y-86250000D03*
X168750000Y-86250000D03*
X160750000Y-100250000D03*
X156750000Y-100250000D03*
X173750000Y-106250000D03*
X175750000Y-82250000D03*
X171750000Y-82250000D03*
X152750000Y-110250000D03*
X148750000Y-86250000D03*
X176750000Y-82250000D03*
X164750000Y-118250000D03*
X158750000Y-114250000D03*
X166750000Y-86250000D03*
X153750000Y-96250000D03*
X152750000Y-82250000D03*
X151750000Y-118250000D03*
X168750000Y-82250000D03*
X168750000Y-110250000D03*
X177750000Y-83250000D03*
X159750000Y-100250000D03*
X156750000Y-110250000D03*
X171750000Y-114250000D03*
X167750000Y-118250000D03*
X146750000Y-118250000D03*
X146750000Y-86250000D03*
X142750000Y-82250000D03*
X145750000Y-109250000D03*
X167750000Y-78250000D03*
X167750000Y-110250000D03*
X165750000Y-82250000D03*
X166750000Y-118250000D03*
X176750000Y-114250000D03*
X144750000Y-114250000D03*
X151750000Y-100250000D03*
X153750000Y-82250000D03*
X141750000Y-82250000D03*
X177750000Y-85250000D03*
X165750000Y-86250000D03*
X177750000Y-82250000D03*
X173750000Y-83250000D03*
X153750000Y-100250000D03*
X158750000Y-118250000D03*
X165750000Y-78250000D03*
X139750000Y-112250000D03*
X162750000Y-110250000D03*
X145750000Y-110250000D03*
X177750000Y-89250000D03*
X147750000Y-114250000D03*
X177750000Y-111250000D03*
X154750000Y-96250000D03*
X154750000Y-100250000D03*
X160750000Y-114250000D03*
X163750000Y-82250000D03*
X172750000Y-114250000D03*
X173750000Y-78250000D03*
X175750000Y-114250000D03*
X157750000Y-86250000D03*
X177750000Y-94250000D03*
X177750000Y-110250000D03*
X152750000Y-118250000D03*
X151750000Y-82250000D03*
X173750000Y-79250000D03*
X159750000Y-78250000D03*
X156750000Y-96250000D03*
X177750000Y-95250000D03*
X172750000Y-82250000D03*
X156750000Y-78250000D03*
X169750000Y-78250000D03*
X147750000Y-118250000D03*
X146750000Y-110250000D03*
X161750000Y-110250000D03*
X156750000Y-114250000D03*
X163750000Y-98250000D03*
X162750000Y-82250000D03*
X148750000Y-78250000D03*
X177750000Y-93250000D03*
X172750000Y-78250000D03*
X173750000Y-118250000D03*
X139750000Y-110250000D03*
X160750000Y-118250000D03*
X177750000Y-96250000D03*
X170750000Y-78250000D03*
X150750000Y-100250000D03*
X155750000Y-82250000D03*
X158750000Y-82250000D03*
X145750000Y-86250000D03*
X173750000Y-104250000D03*
X149750000Y-100250000D03*
X163750000Y-118250000D03*
X177750000Y-114250000D03*
D11*
X170750000Y-101250000D02*
X170750000Y-100250000D01*
X170750000Y-100250000D02*
X170750000Y-99250000D01*
X170750000Y-99250000D02*
X170750000Y-98250000D01*
X170750000Y-98250000D02*
X170750000Y-97250000D01*
X170750000Y-97250000D02*
X170750000Y-96250000D01*
X170750000Y-96250000D02*
X170750000Y-95750000D01*
X167000000Y-97250000D02*
X167000000Y-95750000D01*
X167000000Y-98250000D02*
X167000000Y-97250000D01*
X167000000Y-99250000D02*
X167000000Y-98250000D01*
X167000000Y-100250000D02*
X167000000Y-99250000D01*
X167000000Y-101250000D02*
X167000000Y-100250000D01*
X167000000Y-95750000D02*
X166950000Y-95750000D01*
X170750000Y-100750000D02*
X170750000Y-101250000D01*
X166950000Y-100750000D02*
X167000000Y-101250000D01*
G04 #@! TA.AperFunction,Conductor*
G36*
X141464846Y-115469296D02*
G01*
X141486131Y-115473049D01*
X141555744Y-115491701D01*
X141683981Y-115526062D01*
X141704282Y-115533451D01*
X141856020Y-115604208D01*
X141889915Y-115620014D01*
X141908633Y-115630821D01*
X142076418Y-115748305D01*
X142092976Y-115762199D01*
X142237800Y-115907023D01*
X142251694Y-115923581D01*
X142369178Y-116091366D01*
X142379985Y-116110084D01*
X142466545Y-116295710D01*
X142473938Y-116316022D01*
X142526950Y-116513868D01*
X142530703Y-116535154D01*
X142548554Y-116739192D01*
X142548554Y-116760806D01*
X142530703Y-116964845D01*
X142526950Y-116986131D01*
X142473938Y-117183977D01*
X142466545Y-117204289D01*
X142379985Y-117389915D01*
X142369178Y-117408633D01*
X142251694Y-117576418D01*
X142237800Y-117592976D01*
X142092976Y-117737800D01*
X142076418Y-117751694D01*
X141908633Y-117869178D01*
X141889915Y-117879985D01*
X141704289Y-117966545D01*
X141683977Y-117973938D01*
X141486131Y-118026950D01*
X141464845Y-118030703D01*
X141260807Y-118048554D01*
X141239193Y-118048554D01*
X141035154Y-118030703D01*
X141013868Y-118026950D01*
X140816022Y-117973938D01*
X140795710Y-117966545D01*
X140610084Y-117879985D01*
X140591366Y-117869178D01*
X140423581Y-117751694D01*
X140407023Y-117737800D01*
X140262199Y-117592976D01*
X140248305Y-117576418D01*
X140130821Y-117408633D01*
X140120014Y-117389915D01*
X140104208Y-117356020D01*
X140033451Y-117204282D01*
X140026061Y-117183977D01*
X139973049Y-116986131D01*
X139969296Y-116964845D01*
X139951445Y-116760806D01*
X139951445Y-116739193D01*
X139969296Y-116535151D01*
X139973049Y-116513868D01*
X140026063Y-116316014D01*
X140033449Y-116295721D01*
X140120015Y-116110081D01*
X140130821Y-116091366D01*
X140248305Y-115923581D01*
X140262193Y-115907029D01*
X140407029Y-115762193D01*
X140423581Y-115748305D01*
X140591366Y-115630821D01*
X140610081Y-115620015D01*
X140795721Y-115533449D01*
X140816014Y-115526063D01*
X141013868Y-115473048D01*
X141035151Y-115469296D01*
X141239198Y-115451445D01*
X141260802Y-115451445D01*
X141464846Y-115469296D01*
G37*
G04 #@! TD.AperFunction*
G04 #@! TA.AperFunction,Conductor*
G36*
X176464846Y-115469296D02*
G01*
X176486131Y-115473049D01*
X176555744Y-115491701D01*
X176683981Y-115526062D01*
X176704282Y-115533451D01*
X176856020Y-115604208D01*
X176889915Y-115620014D01*
X176908633Y-115630821D01*
X177076418Y-115748305D01*
X177092976Y-115762199D01*
X177237800Y-115907023D01*
X177251694Y-115923581D01*
X177369178Y-116091366D01*
X177379985Y-116110084D01*
X177466545Y-116295710D01*
X177473938Y-116316022D01*
X177526950Y-116513868D01*
X177530703Y-116535154D01*
X177548554Y-116739192D01*
X177548554Y-116760806D01*
X177530703Y-116964845D01*
X177526950Y-116986131D01*
X177473938Y-117183977D01*
X177466545Y-117204289D01*
X177379985Y-117389915D01*
X177369178Y-117408633D01*
X177251694Y-117576418D01*
X177237800Y-117592976D01*
X177092976Y-117737800D01*
X177076418Y-117751694D01*
X176908633Y-117869178D01*
X176889915Y-117879985D01*
X176704289Y-117966545D01*
X176683977Y-117973938D01*
X176486131Y-118026950D01*
X176464845Y-118030703D01*
X176260807Y-118048554D01*
X176239193Y-118048554D01*
X176035154Y-118030703D01*
X176013868Y-118026950D01*
X175816022Y-117973938D01*
X175795710Y-117966545D01*
X175610084Y-117879985D01*
X175591366Y-117869178D01*
X175423581Y-117751694D01*
X175407023Y-117737800D01*
X175262199Y-117592976D01*
X175248305Y-117576418D01*
X175130821Y-117408633D01*
X175120014Y-117389915D01*
X175104208Y-117356020D01*
X175033451Y-117204282D01*
X175026061Y-117183977D01*
X174973049Y-116986131D01*
X174969296Y-116964845D01*
X174951445Y-116760807D01*
X174951445Y-116739193D01*
X174951446Y-116739192D01*
X174969296Y-116535151D01*
X174973049Y-116513868D01*
X175026063Y-116316014D01*
X175033449Y-116295721D01*
X175120015Y-116110081D01*
X175130821Y-116091366D01*
X175248305Y-115923581D01*
X175262193Y-115907029D01*
X175407029Y-115762193D01*
X175423581Y-115748305D01*
X175591366Y-115630821D01*
X175610081Y-115620015D01*
X175795721Y-115533449D01*
X175816014Y-115526063D01*
X176013868Y-115473048D01*
X176035151Y-115469296D01*
X176239198Y-115451445D01*
X176260802Y-115451445D01*
X176464846Y-115469296D01*
G37*
G04 #@! TD.AperFunction*
G04 #@! TA.AperFunction,Conductor*
G36*
X141464846Y-78469296D02*
G01*
X141486131Y-78473049D01*
X141555744Y-78491701D01*
X141683981Y-78526062D01*
X141704282Y-78533451D01*
X141856020Y-78604208D01*
X141889915Y-78620014D01*
X141908633Y-78630821D01*
X142076418Y-78748305D01*
X142092976Y-78762199D01*
X142237800Y-78907023D01*
X142251694Y-78923581D01*
X142369178Y-79091366D01*
X142379985Y-79110084D01*
X142466545Y-79295710D01*
X142473938Y-79316022D01*
X142526950Y-79513868D01*
X142530703Y-79535154D01*
X142548554Y-79739192D01*
X142548554Y-79760806D01*
X142530703Y-79964845D01*
X142526950Y-79986131D01*
X142473938Y-80183977D01*
X142466545Y-80204289D01*
X142379985Y-80389915D01*
X142369178Y-80408633D01*
X142251694Y-80576418D01*
X142237800Y-80592976D01*
X142092976Y-80737800D01*
X142076418Y-80751694D01*
X141908633Y-80869178D01*
X141889915Y-80879985D01*
X141704289Y-80966545D01*
X141683977Y-80973938D01*
X141486131Y-81026950D01*
X141464845Y-81030703D01*
X141260807Y-81048554D01*
X141239193Y-81048554D01*
X141035154Y-81030703D01*
X141013868Y-81026950D01*
X140816022Y-80973938D01*
X140795710Y-80966545D01*
X140610084Y-80879985D01*
X140591366Y-80869178D01*
X140423581Y-80751694D01*
X140407023Y-80737800D01*
X140262199Y-80592976D01*
X140248305Y-80576418D01*
X140130821Y-80408633D01*
X140120014Y-80389915D01*
X140104208Y-80356020D01*
X140033451Y-80204282D01*
X140026061Y-80183977D01*
X139973049Y-79986131D01*
X139969296Y-79964845D01*
X139951445Y-79760806D01*
X139951445Y-79739193D01*
X139969296Y-79535151D01*
X139973049Y-79513868D01*
X140026063Y-79316014D01*
X140033449Y-79295721D01*
X140120015Y-79110081D01*
X140130821Y-79091366D01*
X140248305Y-78923581D01*
X140262193Y-78907029D01*
X140407029Y-78762193D01*
X140423581Y-78748305D01*
X140591366Y-78630821D01*
X140610081Y-78620015D01*
X140795721Y-78533449D01*
X140816014Y-78526063D01*
X141013868Y-78473048D01*
X141035151Y-78469296D01*
X141239198Y-78451445D01*
X141260802Y-78451445D01*
X141464846Y-78469296D01*
G37*
G04 #@! TD.AperFunction*
G04 #@! TA.AperFunction,Conductor*
G36*
X176464846Y-78469296D02*
G01*
X176486131Y-78473049D01*
X176555744Y-78491701D01*
X176683981Y-78526062D01*
X176704282Y-78533451D01*
X176856020Y-78604208D01*
X176889915Y-78620014D01*
X176908633Y-78630821D01*
X177076418Y-78748305D01*
X177092976Y-78762199D01*
X177237800Y-78907023D01*
X177251694Y-78923581D01*
X177369178Y-79091366D01*
X177379985Y-79110084D01*
X177466545Y-79295710D01*
X177473938Y-79316022D01*
X177526950Y-79513868D01*
X177530703Y-79535154D01*
X177548554Y-79739193D01*
X177548554Y-79760807D01*
X177530703Y-79964845D01*
X177526950Y-79986131D01*
X177473938Y-80183977D01*
X177466545Y-80204289D01*
X177379985Y-80389915D01*
X177369178Y-80408633D01*
X177251694Y-80576418D01*
X177237800Y-80592976D01*
X177092976Y-80737800D01*
X177076418Y-80751694D01*
X176908633Y-80869178D01*
X176889915Y-80879985D01*
X176704289Y-80966545D01*
X176683977Y-80973938D01*
X176486131Y-81026950D01*
X176464845Y-81030703D01*
X176260807Y-81048554D01*
X176239193Y-81048554D01*
X176035154Y-81030703D01*
X176013868Y-81026950D01*
X175816022Y-80973938D01*
X175795710Y-80966545D01*
X175610084Y-80879985D01*
X175591366Y-80869178D01*
X175423581Y-80751694D01*
X175407023Y-80737800D01*
X175262199Y-80592976D01*
X175248305Y-80576418D01*
X175130821Y-80408633D01*
X175120014Y-80389915D01*
X175104208Y-80356020D01*
X175033451Y-80204282D01*
X175026061Y-80183977D01*
X174973049Y-79986131D01*
X174969296Y-79964845D01*
X174951445Y-79760806D01*
X174951445Y-79739193D01*
X174969296Y-79535151D01*
X174973049Y-79513868D01*
X175026063Y-79316014D01*
X175033449Y-79295721D01*
X175120015Y-79110081D01*
X175130821Y-79091366D01*
X175248305Y-78923581D01*
X175262193Y-78907029D01*
X175407029Y-78762193D01*
X175423581Y-78748305D01*
X175591366Y-78630821D01*
X175610081Y-78620015D01*
X175795721Y-78533449D01*
X175816014Y-78526063D01*
X176013868Y-78473048D01*
X176035151Y-78469296D01*
X176239198Y-78451445D01*
X176260802Y-78451445D01*
X176464846Y-78469296D01*
G37*
G04 #@! TD.AperFunction*
G04 #@! TA.AperFunction,Conductor*
G36*
X177515677Y-77519685D02*
G01*
X177536319Y-77536319D01*
X178463682Y-78463682D01*
X178497166Y-78525003D01*
X178500000Y-78551361D01*
X178500000Y-117948638D01*
X178480315Y-118015677D01*
X178463681Y-118036319D01*
X177536319Y-118963681D01*
X177474996Y-118997166D01*
X177448638Y-119000000D01*
X140051362Y-119000000D01*
X139984323Y-118980315D01*
X139963681Y-118963681D01*
X139036319Y-118036319D01*
X139002834Y-117974996D01*
X139000000Y-117948638D01*
X139000000Y-116750001D01*
X139944532Y-116750001D01*
X139964364Y-116976686D01*
X139964366Y-116976697D01*
X140023258Y-117196488D01*
X140023261Y-117196497D01*
X140119431Y-117402732D01*
X140119432Y-117402734D01*
X140249954Y-117589141D01*
X140410858Y-117750045D01*
X140410861Y-117750047D01*
X140597266Y-117880568D01*
X140803504Y-117976739D01*
X141023308Y-118035635D01*
X141170973Y-118048554D01*
X141249998Y-118055468D01*
X141250000Y-118055468D01*
X141250002Y-118055468D01*
X141329027Y-118048554D01*
X141476692Y-118035635D01*
X141696496Y-117976739D01*
X141902734Y-117880568D01*
X142089139Y-117750047D01*
X142250047Y-117589139D01*
X142380568Y-117402734D01*
X142476739Y-117196496D01*
X142535635Y-116976692D01*
X142555468Y-116750001D01*
X174944532Y-116750001D01*
X174964364Y-116976686D01*
X174964366Y-116976697D01*
X175023258Y-117196488D01*
X175023261Y-117196497D01*
X175119431Y-117402732D01*
X175119432Y-117402734D01*
X175249954Y-117589141D01*
X175410858Y-117750045D01*
X175410861Y-117750047D01*
X175597266Y-117880568D01*
X175803504Y-117976739D01*
X176023308Y-118035635D01*
X176170973Y-118048554D01*
X176249998Y-118055468D01*
X176250000Y-118055468D01*
X176250002Y-118055468D01*
X176329027Y-118048554D01*
X176476692Y-118035635D01*
X176696496Y-117976739D01*
X176902734Y-117880568D01*
X177089139Y-117750047D01*
X177250047Y-117589139D01*
X177380568Y-117402734D01*
X177476739Y-117196496D01*
X177535635Y-116976692D01*
X177555468Y-116750000D01*
X177554522Y-116739192D01*
X177536671Y-116535154D01*
X177535635Y-116523308D01*
X177476739Y-116303504D01*
X177380568Y-116097266D01*
X177250047Y-115910861D01*
X177250045Y-115910858D01*
X177089141Y-115749954D01*
X176902734Y-115619432D01*
X176902732Y-115619431D01*
X176696497Y-115523261D01*
X176696488Y-115523258D01*
X176476697Y-115464366D01*
X176476693Y-115464365D01*
X176476692Y-115464365D01*
X176476691Y-115464364D01*
X176476686Y-115464364D01*
X176250002Y-115444532D01*
X176249998Y-115444532D01*
X176023313Y-115464364D01*
X176023302Y-115464366D01*
X175803511Y-115523258D01*
X175803502Y-115523261D01*
X175597267Y-115619431D01*
X175597265Y-115619432D01*
X175410858Y-115749954D01*
X175249954Y-115910858D01*
X175119432Y-116097265D01*
X175119431Y-116097267D01*
X175023261Y-116303502D01*
X175023258Y-116303511D01*
X174964366Y-116523302D01*
X174964364Y-116523313D01*
X174944532Y-116749998D01*
X174944532Y-116750001D01*
X142555468Y-116750001D01*
X142555468Y-116750000D01*
X142554522Y-116739192D01*
X142536671Y-116535154D01*
X142535635Y-116523308D01*
X142476739Y-116303504D01*
X142380568Y-116097266D01*
X142250047Y-115910861D01*
X142250045Y-115910858D01*
X142089141Y-115749954D01*
X141902734Y-115619432D01*
X141902732Y-115619431D01*
X141696497Y-115523261D01*
X141696488Y-115523258D01*
X141476697Y-115464366D01*
X141476693Y-115464365D01*
X141476692Y-115464365D01*
X141476691Y-115464364D01*
X141476686Y-115464364D01*
X141250002Y-115444532D01*
X141249998Y-115444532D01*
X141023313Y-115464364D01*
X141023302Y-115464366D01*
X140803511Y-115523258D01*
X140803502Y-115523261D01*
X140597267Y-115619431D01*
X140597265Y-115619432D01*
X140410858Y-115749954D01*
X140249954Y-115910858D01*
X140119432Y-116097265D01*
X140119431Y-116097267D01*
X140023261Y-116303502D01*
X140023258Y-116303511D01*
X139964366Y-116523302D01*
X139964364Y-116523313D01*
X139944532Y-116749998D01*
X139944532Y-116750001D01*
X139000000Y-116750001D01*
X139000000Y-108624000D01*
X139019685Y-108556961D01*
X139072489Y-108511206D01*
X139124000Y-108500000D01*
X148500000Y-108500000D01*
X148500000Y-93500000D01*
X164750000Y-93500000D01*
X164750000Y-103250000D01*
X172750000Y-103250000D01*
X172750000Y-93500000D01*
X164750000Y-93500000D01*
X148500000Y-93500000D01*
X148500000Y-88000000D01*
X139124000Y-88000000D01*
X139056961Y-87980315D01*
X139011206Y-87927511D01*
X139000000Y-87876000D01*
X139000000Y-79750001D01*
X139944532Y-79750001D01*
X139964364Y-79976686D01*
X139964366Y-79976697D01*
X140023258Y-80196488D01*
X140023261Y-80196497D01*
X140119431Y-80402732D01*
X140119432Y-80402734D01*
X140249954Y-80589141D01*
X140410858Y-80750045D01*
X140410861Y-80750047D01*
X140597266Y-80880568D01*
X140803504Y-80976739D01*
X141023308Y-81035635D01*
X141170973Y-81048554D01*
X141249998Y-81055468D01*
X141250000Y-81055468D01*
X141250002Y-81055468D01*
X141329027Y-81048554D01*
X141476692Y-81035635D01*
X141696496Y-80976739D01*
X141902734Y-80880568D01*
X142089139Y-80750047D01*
X142250047Y-80589139D01*
X142380568Y-80402734D01*
X142476739Y-80196496D01*
X142535635Y-79976692D01*
X142555468Y-79750001D01*
X174944532Y-79750001D01*
X174964364Y-79976686D01*
X174964366Y-79976697D01*
X175023258Y-80196488D01*
X175023261Y-80196497D01*
X175119431Y-80402732D01*
X175119432Y-80402734D01*
X175249954Y-80589141D01*
X175410858Y-80750045D01*
X175410861Y-80750047D01*
X175597266Y-80880568D01*
X175803504Y-80976739D01*
X176023308Y-81035635D01*
X176170973Y-81048554D01*
X176249998Y-81055468D01*
X176250000Y-81055468D01*
X176250002Y-81055468D01*
X176329027Y-81048554D01*
X176476692Y-81035635D01*
X176696496Y-80976739D01*
X176902734Y-80880568D01*
X177089139Y-80750047D01*
X177250047Y-80589139D01*
X177380568Y-80402734D01*
X177476739Y-80196496D01*
X177535635Y-79976692D01*
X177555468Y-79750000D01*
X177554522Y-79739192D01*
X177536671Y-79535154D01*
X177535635Y-79523308D01*
X177476739Y-79303504D01*
X177380568Y-79097266D01*
X177250047Y-78910861D01*
X177250045Y-78910858D01*
X177089141Y-78749954D01*
X176902734Y-78619432D01*
X176902732Y-78619431D01*
X176696497Y-78523261D01*
X176696488Y-78523258D01*
X176476697Y-78464366D01*
X176476693Y-78464365D01*
X176476692Y-78464365D01*
X176476691Y-78464364D01*
X176476686Y-78464364D01*
X176250002Y-78444532D01*
X176249998Y-78444532D01*
X176023313Y-78464364D01*
X176023302Y-78464366D01*
X175803511Y-78523258D01*
X175803502Y-78523261D01*
X175597267Y-78619431D01*
X175597265Y-78619432D01*
X175410858Y-78749954D01*
X175249954Y-78910858D01*
X175119432Y-79097265D01*
X175119431Y-79097267D01*
X175023261Y-79303502D01*
X175023258Y-79303511D01*
X174964366Y-79523302D01*
X174964364Y-79523313D01*
X174944532Y-79749998D01*
X174944532Y-79750001D01*
X142555468Y-79750001D01*
X142555468Y-79750000D01*
X142554522Y-79739192D01*
X142536671Y-79535154D01*
X142535635Y-79523308D01*
X142476739Y-79303504D01*
X142380568Y-79097266D01*
X142250047Y-78910861D01*
X142250045Y-78910858D01*
X142089141Y-78749954D01*
X141902734Y-78619432D01*
X141902732Y-78619431D01*
X141696497Y-78523261D01*
X141696488Y-78523258D01*
X141476697Y-78464366D01*
X141476693Y-78464365D01*
X141476692Y-78464365D01*
X141476691Y-78464364D01*
X141476686Y-78464364D01*
X141250002Y-78444532D01*
X141249998Y-78444532D01*
X141023313Y-78464364D01*
X141023302Y-78464366D01*
X140803511Y-78523258D01*
X140803502Y-78523261D01*
X140597267Y-78619431D01*
X140597265Y-78619432D01*
X140410858Y-78749954D01*
X140249954Y-78910858D01*
X140119432Y-79097265D01*
X140119431Y-79097267D01*
X140023261Y-79303502D01*
X140023258Y-79303511D01*
X139964366Y-79523302D01*
X139964364Y-79523313D01*
X139944532Y-79749998D01*
X139944532Y-79750001D01*
X139000000Y-79750001D01*
X139000000Y-78301362D01*
X139019685Y-78234323D01*
X139036319Y-78213681D01*
X139713681Y-77536319D01*
X139775004Y-77502834D01*
X139801362Y-77500000D01*
X177448638Y-77500000D01*
X177515677Y-77519685D01*
G37*
G04 #@! TD.AperFunction*
M02*
