M48
INCH,TZ
T1C0.0157
%
G90
G05
T1
X58386Y-32283
X58386Y-32677
X58386Y-33071
X58386Y-33465
X58386Y-33858
X58386Y-34252
X58386Y-42913
X58386Y-43307
X58386Y-43701
X58386Y-44094
X58386Y-44488
X58386Y-44882
X58780Y-32283
X58780Y-34252
X58780Y-42913
X58780Y-44882
X59173Y-32283
X59173Y-34252
X59173Y-42913
X59173Y-44882
X59567Y-32283
X59567Y-34252
X59567Y-42913
X59567Y-44882
X59961Y-30709
X59961Y-31102
X59961Y-31496
X59961Y-31890
X59961Y-32283
X59961Y-34252
X59961Y-42913
X59961Y-44882
X59961Y-45276
X59961Y-45669
X59961Y-46063
X59961Y-46457
X60354Y-30709
X60354Y-32283
X60354Y-34252
X60354Y-42913
X60354Y-44882
X60354Y-46457
X60748Y-30709
X60748Y-32283
X60748Y-33858
X60748Y-34252
X60748Y-42913
X60748Y-43307
X60748Y-44882
X60748Y-46457
X61142Y-30709
X61142Y-32283
X61142Y-33858
X61142Y-43307
X61142Y-44882
X61142Y-46457
X61535Y-30709
X61535Y-32283
X61535Y-33858
X61535Y-43307
X61535Y-44882
X61535Y-46457
X61929Y-30709
X61929Y-32283
X61929Y-33858
X61929Y-43307
X61929Y-44882
X61929Y-44882
X61929Y-46457
X61929Y-46457
X62323Y-30709
X62323Y-32283
X62323Y-33858
X62323Y-34291
X62323Y-34685
X62323Y-35079
X62323Y-35472
X62323Y-35866
X62323Y-36260
X62323Y-36654
X62323Y-37047
X62323Y-37441
X62323Y-37795
X62323Y-38189
X62323Y-38583
X62323Y-38976
X62323Y-39370
X62323Y-39764
X62323Y-40157
X62323Y-40551
X62323Y-40945
X62323Y-41339
X62323Y-41732
X62323Y-42126
X62323Y-42520
X62323Y-42913
X62323Y-43307
X62323Y-44882
X62323Y-46457
X62717Y-30709
X62717Y-32283
X62717Y-33858
X62717Y-37795
X62717Y-39370
X62717Y-43307
X62717Y-44882
X62717Y-46457
X63110Y-30709
X63110Y-32283
X63110Y-33858
X63110Y-37795
X63110Y-39370
X63110Y-43307
X63110Y-44882
X63110Y-46457
X63504Y-30709
X63504Y-32283
X63504Y-33858
X63504Y-37795
X63504Y-39370
X63504Y-43307
X63504Y-44882
X63504Y-46457
X63898Y-30709
X63898Y-32283
X63898Y-33858
X63898Y-37795
X63898Y-39370
X63898Y-39370
X63898Y-43307
X63898Y-44882
X63898Y-46457
X64291Y-30709
X64291Y-32283
X64291Y-33858
X64291Y-37795
X64291Y-39370
X64291Y-43307
X64291Y-44882
X64291Y-44882
X64291Y-46457
X64685Y-30709
X64685Y-32283
X64685Y-33858
X64685Y-37795
X64685Y-39370
X64685Y-43307
X64685Y-44882
X64685Y-46457
X65079Y-30709
X65079Y-32283
X65079Y-33858
X65079Y-37795
X65079Y-39370
X65079Y-43307
X65079Y-44882
X65079Y-46457
X65472Y-30709
X65472Y-32283
X65472Y-33858
X65472Y-37795
X65472Y-39370
X65472Y-43307
X65472Y-44882
X65472Y-46457
X65866Y-30709
X65866Y-32283
X65866Y-33858
X65866Y-37795
X65866Y-39370
X65866Y-43307
X65866Y-44882
X65866Y-44882
X65866Y-46457
X66260Y-30709
X66260Y-32283
X66260Y-33858
X66260Y-37795
X66260Y-39370
X66260Y-43307
X66260Y-44882
X66260Y-46457
X66654Y-30709
X66654Y-32283
X66654Y-33858
X66654Y-37795
X66654Y-39370
X66654Y-43307
X66654Y-44882
X66654Y-46457
X67047Y-30709
X67047Y-32283
X67047Y-33858
X67047Y-37795
X67047Y-39370
X67047Y-43307
X67047Y-44882
X67047Y-44882
X67047Y-46457
X67441Y-30709
X67441Y-32283
X67441Y-33858
X67441Y-37795
X67441Y-39370
X67441Y-43307
X67441Y-44882
X67441Y-46457
X67835Y-30709
X67835Y-32283
X67835Y-33858
X67835Y-34291
X67835Y-34685
X67835Y-35079
X67835Y-35472
X67835Y-35866
X67835Y-36260
X67835Y-36654
X67835Y-37047
X67835Y-37441
X67835Y-37795
X67835Y-38189
X67835Y-38583
X67835Y-38976
X67835Y-39370
X67835Y-39764
X67835Y-40157
X67835Y-40551
X67835Y-40945
X67835Y-41339
X67835Y-41732
X67835Y-42126
X67835Y-42520
X67835Y-42913
X67835Y-43307
X67835Y-44882
X67835Y-46457
X68228Y-30709
X68228Y-32283
X68228Y-33858
X68228Y-36260
X68228Y-40945
X68228Y-43307
X68228Y-44882
X68228Y-46457
X68622Y-30709
X68622Y-30709
X68622Y-32283
X68622Y-33858
X68622Y-36260
X68622Y-40945
X68622Y-43307
X68622Y-44882
X68622Y-46457
X69016Y-30709
X69016Y-32283
X69016Y-33858
X69016Y-36260
X69016Y-40945
X69016Y-43307
X69016Y-44882
X69016Y-46457
X69409Y-30709
X69409Y-32283
X69409Y-33858
X69409Y-36260
X69409Y-40945
X69409Y-43307
X69409Y-44882
X69409Y-46457
X69803Y-30709
X69803Y-32283
X69803Y-33858
X69803Y-36260
X69803Y-40945
X69803Y-43307
X69803Y-44882
X69803Y-46457
X70197Y-30709
X70197Y-32283
X70197Y-33858
X70197Y-36260
X70197Y-40945
X70197Y-43307
X70197Y-44882
X70197Y-46457
X70591Y-30709
X70591Y-32283
X70591Y-34252
X70591Y-36260
X70591Y-40945
X70591Y-42913
X70591Y-44882
X70591Y-46457
X70984Y-30709
X70984Y-32283
X70984Y-34646
X70984Y-36260
X70984Y-40945
X70984Y-42520
X70984Y-44882
X70984Y-46457
X71378Y-30709
X71378Y-32283
X71378Y-35039
X71378Y-36260
X71378Y-40945
X71378Y-42126
X71378Y-44882
X71378Y-44882
X71378Y-46457
X71772Y-30709
X71772Y-31102
X71772Y-31496
X71772Y-31890
X71772Y-32283
X71772Y-32677
X71772Y-33071
X71772Y-33465
X71772Y-33858
X71772Y-34252
X71772Y-34646
X71772Y-35039
X71772Y-35433
X71772Y-35827
X71772Y-36220
X71772Y-36614
X71772Y-37008
X71772Y-37402
X71772Y-37795
X71772Y-38189
X71772Y-38583
X71772Y-38976
X71772Y-39370
X71772Y-39764
X71772Y-40157
X71772Y-40551
X71772Y-40945
X71772Y-41339
X71772Y-41732
X71772Y-42126
X71772Y-42520
X71772Y-42913
X71772Y-43307
X71772Y-43701
X71772Y-44094
X71772Y-44488
X71772Y-44882
X71772Y-45276
X71772Y-45669
X71772Y-46063
X71772Y-46457
X72165Y-32283
X72165Y-44882
X72559Y-32283
X72559Y-44882
X72953Y-32283
X72953Y-44882
X73346Y-32283
X73346Y-32677
X73346Y-33071
X73346Y-33465
X73346Y-33858
X73346Y-34252
X73346Y-34646
X73346Y-35039
X73346Y-35433
X73346Y-35827
X73346Y-36220
X73346Y-36614
X73346Y-37008
X73346Y-37402
X73346Y-37795
X73346Y-38189
X73346Y-38583
X73346Y-38976
X73346Y-39370
X73346Y-39764
X73346Y-40157
X73346Y-40551
X73346Y-40945
X73346Y-41339
X73346Y-41732
X73346Y-42126
X73346Y-42520
X73346Y-42913
X73346Y-43307
X73346Y-43701
X73346Y-44094
X73346Y-44488
X73346Y-44882
T0
M30
